<?xml version="1.0" encoding="UTF-8" standalone="no"?>
<!DOCTYPE svg PUBLIC "-//W3C//DTD SVG 1.1//EN"
 "http://www.w3.org/Graphics/SVG/1.1/DTD/svg11.dtd">
<!-- Generated by graphviz version 14.1.5 (20260411.2331)
 -->
<!-- Title: gptel_agent_runtime Pages: 1 -->
<svg width="2336pt" height="120pt"
 viewBox="0.00 0.00 2336.00 120.00" xmlns="http://www.w3.org/2000/svg" xmlns:xlink="http://www.w3.org/1999/xlink">
<g id="graph0" class="graph" transform="scale(1 1) rotate(0) translate(4 116)">
<title>gptel_agent_runtime</title>
<polygon fill="white" stroke="none" points="-4,4 -4,-116 2332.12,-116 2332.12,4 -4,4"/>
<!-- gptel&#45;agent&#45;runtime -->
<g id="node1" class="node">
<title>gptel&#45;agent&#45;runtime</title>
<path fill="#fde2c4" stroke="black" d="M1182.12,-112C1182.12,-112 1096.38,-112 1096.38,-112 1090.38,-112 1084.38,-106 1084.38,-100 1084.38,-100 1084.38,-88 1084.38,-88 1084.38,-82 1090.38,-76 1096.38,-76 1096.38,-76 1182.12,-76 1182.12,-76 1188.12,-76 1194.12,-82 1194.12,-88 1194.12,-88 1194.12,-100 1194.12,-100 1194.12,-106 1188.12,-112 1182.12,-112"/>
<text xml:space="preserve" text-anchor="middle" x="1139.25" y="-89.55" font-family="Helvetica,sans-Serif" font-size="11.00">gptel&#45;agent&#45;runtime</text>
</g>
<!-- gar&#45;core -->
<g id="node2" class="node">
<title>gar&#45;core</title>
<path fill="#cce8cc" stroke="black" d="M44.5,-36C44.5,-36 12,-36 12,-36 6,-36 0,-30 0,-24 0,-24 0,-12 0,-12 0,-6 6,0 12,0 12,0 44.5,0 44.5,0 50.5,0 56.5,-6 56.5,-12 56.5,-12 56.5,-24 56.5,-24 56.5,-30 50.5,-36 44.5,-36"/>
<text xml:space="preserve" text-anchor="middle" x="28.25" y="-13.55" font-family="Helvetica,sans-Serif" font-size="11.00">gar&#45;core</text>
</g>
<!-- gptel&#45;agent&#45;runtime&#45;&gt;gar&#45;core -->
<g id="edge1" class="edge">
<title>gptel&#45;agent&#45;runtime&#45;&gt;gar&#45;core</title>
<path fill="none" stroke="#666666" d="M1083.92,-92.66C896.35,-91.09 284.76,-82.65 67.77,-35.32"/>
<polygon fill="#666666" stroke="#666666" points="68.82,-31.97 58.29,-33.15 67.26,-38.79 68.82,-31.97"/>
</g>
<!-- gar&#45;substrate -->
<g id="node3" class="node">
<title>gar&#45;substrate</title>
<path fill="#dde8f5" stroke="black" d="M146.12,-36C146.12,-36 90.38,-36 90.38,-36 84.38,-36 78.38,-30 78.38,-24 78.38,-24 78.38,-12 78.38,-12 78.38,-6 84.38,0 90.38,0 90.38,0 146.12,0 146.12,0 152.12,0 158.12,-6 158.12,-12 158.12,-12 158.12,-24 158.12,-24 158.12,-30 152.12,-36 146.12,-36"/>
<text xml:space="preserve" text-anchor="middle" x="118.25" y="-13.55" font-family="Helvetica,sans-Serif" font-size="11.00">gar&#45;substrate</text>
</g>
<!-- gptel&#45;agent&#45;runtime&#45;&gt;gar&#45;substrate -->
<g id="edge2" class="edge">
<title>gptel&#45;agent&#45;runtime&#45;&gt;gar&#45;substrate</title>
<path fill="none" stroke="#666666" d="M1084.12,-91.66C909.28,-87.14 367.76,-70.79 169.51,-35.53"/>
<polygon fill="#666666" stroke="#666666" points="170.31,-32.12 159.84,-33.73 169.03,-39 170.31,-32.12"/>
</g>
<!-- gar&#45;quarantine -->
<g id="node4" class="node">
<title>gar&#45;quarantine</title>
<path fill="#dde8f5" stroke="black" d="M254.5,-36C254.5,-36 192,-36 192,-36 186,-36 180,-30 180,-24 180,-24 180,-12 180,-12 180,-6 186,0 192,0 192,0 254.5,0 254.5,0 260.5,0 266.5,-6 266.5,-12 266.5,-12 266.5,-24 266.5,-24 266.5,-30 260.5,-36 254.5,-36"/>
<text xml:space="preserve" text-anchor="middle" x="223.25" y="-13.55" font-family="Helvetica,sans-Serif" font-size="11.00">gar&#45;quarantine</text>
</g>
<!-- gptel&#45;agent&#45;runtime&#45;&gt;gar&#45;quarantine -->
<g id="edge3" class="edge">
<title>gptel&#45;agent&#45;runtime&#45;&gt;gar&#45;quarantine</title>
<path fill="none" stroke="#666666" d="M1084.05,-93.78C946.62,-94.78 578.57,-91.56 278.25,-36 278.13,-35.98 278.02,-35.96 277.9,-35.93"/>
<polygon fill="#666666" stroke="#666666" points="278.85,-32.56 268.33,-33.81 277.33,-39.39 278.85,-32.56"/>
</g>
<!-- gar&#45;skeptic -->
<g id="node5" class="node">
<title>gar&#45;skeptic</title>
<path fill="#dde8f5" stroke="black" d="M345.5,-36C345.5,-36 301,-36 301,-36 295,-36 289,-30 289,-24 289,-24 289,-12 289,-12 289,-6 295,0 301,0 301,0 345.5,0 345.5,0 351.5,0 357.5,-6 357.5,-12 357.5,-12 357.5,-24 357.5,-24 357.5,-30 351.5,-36 345.5,-36"/>
<text xml:space="preserve" text-anchor="middle" x="323.25" y="-13.55" font-family="Helvetica,sans-Serif" font-size="11.00">gar&#45;skeptic</text>
</g>
<!-- gptel&#45;agent&#45;runtime&#45;&gt;gar&#45;skeptic -->
<g id="edge4" class="edge">
<title>gptel&#45;agent&#45;runtime&#45;&gt;gar&#45;skeptic</title>
<path fill="none" stroke="#666666" d="M1084.13,-90.98C934.98,-85.2 524.88,-67.11 368.64,-35.49"/>
<polygon fill="#666666" stroke="#666666" points="369.82,-32.16 359.31,-33.51 368.37,-39.01 369.82,-32.16"/>
</g>
<!-- gar&#45;skeptic&#45;model -->
<g id="node6" class="node">
<title>gar&#45;skeptic&#45;model</title>
<path fill="#ffffff" stroke="black" d="M469,-36C469,-36 391.5,-36 391.5,-36 385.5,-36 379.5,-30 379.5,-24 379.5,-24 379.5,-12 379.5,-12 379.5,-6 385.5,0 391.5,0 391.5,0 469,0 469,0 475,0 481,-6 481,-12 481,-12 481,-24 481,-24 481,-30 475,-36 469,-36"/>
<text xml:space="preserve" text-anchor="middle" x="430.25" y="-13.55" font-family="Helvetica,sans-Serif" font-size="11.00">gar&#45;skeptic&#45;model</text>
</g>
<!-- gptel&#45;agent&#45;runtime&#45;&gt;gar&#45;skeptic&#45;model -->
<g id="edge5" class="edge">
<title>gptel&#45;agent&#45;runtime&#45;&gt;gar&#45;skeptic&#45;model</title>
<path fill="none" stroke="#666666" d="M1084.28,-91.48C973.94,-87.73 717.66,-75.38 492.22,-35.71"/>
<polygon fill="#666666" stroke="#666666" points="493.12,-32.32 482.66,-34.01 491.89,-39.21 493.12,-32.32"/>
</g>
<!-- gar&#45;verifier -->
<g id="node7" class="node">
<title>gar&#45;verifier</title>
<path fill="#ffffff" stroke="black" d="M559.12,-36C559.12,-36 515.38,-36 515.38,-36 509.38,-36 503.38,-30 503.38,-24 503.38,-24 503.38,-12 503.38,-12 503.38,-6 509.38,0 515.38,0 515.38,0 559.12,0 559.12,0 565.12,0 571.12,-6 571.12,-12 571.12,-12 571.12,-24 571.12,-24 571.12,-30 565.12,-36 559.12,-36"/>
<text xml:space="preserve" text-anchor="middle" x="537.25" y="-13.55" font-family="Helvetica,sans-Serif" font-size="11.00">gar&#45;verifier</text>
</g>
<!-- gptel&#45;agent&#45;runtime&#45;&gt;gar&#45;verifier -->
<g id="edge6" class="edge">
<title>gptel&#45;agent&#45;runtime&#45;&gt;gar&#45;verifier</title>
<path fill="none" stroke="#666666" d="M1083.92,-92.06C984.84,-89.37 770.84,-78.91 582.31,-35.5"/>
<polygon fill="#666666" stroke="#666666" points="583.37,-32.15 572.83,-33.28 581.77,-38.97 583.37,-32.15"/>
</g>
<!-- gar&#45;validator -->
<g id="node8" class="node">
<title>gar&#45;validator</title>
<path fill="#ffffff" stroke="black" d="M657.25,-36C657.25,-36 605.25,-36 605.25,-36 599.25,-36 593.25,-30 593.25,-24 593.25,-24 593.25,-12 593.25,-12 593.25,-6 599.25,0 605.25,0 605.25,0 657.25,0 657.25,0 663.25,0 669.25,-6 669.25,-12 669.25,-12 669.25,-24 669.25,-24 669.25,-30 663.25,-36 657.25,-36"/>
<text xml:space="preserve" text-anchor="middle" x="631.25" y="-13.55" font-family="Helvetica,sans-Serif" font-size="11.00">gar&#45;validator</text>
</g>
<!-- gptel&#45;agent&#45;runtime&#45;&gt;gar&#45;validator -->
<g id="edge7" class="edge">
<title>gptel&#45;agent&#45;runtime&#45;&gt;gar&#45;validator</title>
<path fill="none" stroke="#666666" d="M1084.19,-89.91C999.4,-84.35 831.85,-70.1 680.42,-35.66"/>
<polygon fill="#666666" stroke="#666666" points="681.55,-32.32 671.02,-33.48 679.97,-39.14 681.55,-32.32"/>
</g>
<!-- gar&#45;policy -->
<g id="node9" class="node">
<title>gar&#45;policy</title>
<path fill="#dde8f5" stroke="black" d="M741.5,-36C741.5,-36 703,-36 703,-36 697,-36 691,-30 691,-24 691,-24 691,-12 691,-12 691,-6 697,0 703,0 703,0 741.5,0 741.5,0 747.5,0 753.5,-6 753.5,-12 753.5,-12 753.5,-24 753.5,-24 753.5,-30 747.5,-36 741.5,-36"/>
<text xml:space="preserve" text-anchor="middle" x="722.25" y="-13.55" font-family="Helvetica,sans-Serif" font-size="11.00">gar&#45;policy</text>
</g>
<!-- gptel&#45;agent&#45;runtime&#45;&gt;gar&#45;policy -->
<g id="edge8" class="edge">
<title>gptel&#45;agent&#45;runtime&#45;&gt;gar&#45;policy</title>
<path fill="none" stroke="#666666" d="M1084.08,-88.68C1012.44,-82.17 883.64,-67.46 764.73,-35.65"/>
<polygon fill="#666666" stroke="#666666" points="765.65,-32.27 755.08,-33.02 763.81,-39.02 765.65,-32.27"/>
</g>
<!-- gar&#45;mission&#45;control -->
<g id="node10" class="node">
<title>gar&#45;mission&#45;control</title>
<path fill="#f5f5f5" stroke="black" d="M871,-36C871,-36 787.5,-36 787.5,-36 781.5,-36 775.5,-30 775.5,-24 775.5,-24 775.5,-12 775.5,-12 775.5,-6 781.5,0 787.5,0 787.5,0 871,0 871,0 877,0 883,-6 883,-12 883,-12 883,-24 883,-24 883,-30 877,-36 871,-36"/>
<text xml:space="preserve" text-anchor="middle" x="829.25" y="-13.55" font-family="Helvetica,sans-Serif" font-size="11.00">gar&#45;mission&#45;control</text>
</g>
<!-- gptel&#45;agent&#45;runtime&#45;&gt;gar&#45;mission&#45;control -->
<g id="edge9" class="edge">
<title>gptel&#45;agent&#45;runtime&#45;&gt;gar&#45;mission&#45;control</title>
<path fill="none" stroke="#666666" d="M1084.17,-80.64C1036.88,-69.92 966.6,-53.75 894.59,-36.04"/>
<polygon fill="#666666" stroke="#666666" points="895.5,-32.66 884.96,-33.67 893.83,-39.46 895.5,-32.66"/>
</g>
<!-- gar&#45;canaries -->
<g id="node11" class="node">
<title>gar&#45;canaries</title>
<path fill="#f5f5f5" stroke="black" d="M969.25,-36C969.25,-36 917.25,-36 917.25,-36 911.25,-36 905.25,-30 905.25,-24 905.25,-24 905.25,-12 905.25,-12 905.25,-6 911.25,0 917.25,0 917.25,0 969.25,0 969.25,0 975.25,0 981.25,-6 981.25,-12 981.25,-12 981.25,-24 981.25,-24 981.25,-30 975.25,-36 969.25,-36"/>
<text xml:space="preserve" text-anchor="middle" x="943.25" y="-13.55" font-family="Helvetica,sans-Serif" font-size="11.00">gar&#45;canaries</text>
</g>
<!-- gptel&#45;agent&#45;runtime&#45;&gt;gar&#45;canaries -->
<g id="edge10" class="edge">
<title>gptel&#45;agent&#45;runtime&#45;&gt;gar&#45;canaries</title>
<path fill="none" stroke="#666666" d="M1093.3,-75.65C1062.93,-64.19 1023.18,-49.18 992.22,-37.49"/>
<polygon fill="#666666" stroke="#666666" points="993.67,-34.3 983.08,-34.04 991.2,-40.84 993.67,-34.3"/>
</g>
<!-- gar&#45;memory -->
<g id="node12" class="node">
<title>gar&#45;memory</title>
<path fill="#f5f5f5" stroke="black" d="M1065.5,-36C1065.5,-36 1015,-36 1015,-36 1009,-36 1003,-30 1003,-24 1003,-24 1003,-12 1003,-12 1003,-6 1009,0 1015,0 1015,0 1065.5,0 1065.5,0 1071.5,0 1077.5,-6 1077.5,-12 1077.5,-12 1077.5,-24 1077.5,-24 1077.5,-30 1071.5,-36 1065.5,-36"/>
<text xml:space="preserve" text-anchor="middle" x="1040.25" y="-13.55" font-family="Helvetica,sans-Serif" font-size="11.00">gar&#45;memory</text>
</g>
<!-- gptel&#45;agent&#45;runtime&#45;&gt;gar&#45;memory -->
<g id="edge11" class="edge">
<title>gptel&#45;agent&#45;runtime&#45;&gt;gar&#45;memory</title>
<path fill="none" stroke="#666666" d="M1116.04,-75.65C1103.1,-65.98 1086.78,-53.78 1072.61,-43.19"/>
<polygon fill="#666666" stroke="#666666" points="1074.98,-40.59 1064.87,-37.4 1070.79,-46.19 1074.98,-40.59"/>
</g>
<!-- gar&#45;trajectory -->
<g id="node13" class="node">
<title>gar&#45;trajectory</title>
<path fill="#ffffff" stroke="black" d="M1167.12,-36C1167.12,-36 1111.38,-36 1111.38,-36 1105.38,-36 1099.38,-30 1099.38,-24 1099.38,-24 1099.38,-12 1099.38,-12 1099.38,-6 1105.38,0 1111.38,0 1111.38,0 1167.12,0 1167.12,0 1173.12,0 1179.12,-6 1179.12,-12 1179.12,-12 1179.12,-24 1179.12,-24 1179.12,-30 1173.12,-36 1167.12,-36"/>
<text xml:space="preserve" text-anchor="middle" x="1139.25" y="-13.55" font-family="Helvetica,sans-Serif" font-size="11.00">gar&#45;trajectory</text>
</g>
<!-- gptel&#45;agent&#45;runtime&#45;&gt;gar&#45;trajectory -->
<g id="edge12" class="edge">
<title>gptel&#45;agent&#45;runtime&#45;&gt;gar&#45;trajectory</title>
<path fill="none" stroke="#666666" d="M1139.25,-75.84C1139.25,-67.49 1139.25,-57.23 1139.25,-47.74"/>
<polygon fill="#666666" stroke="#666666" points="1142.75,-47.84 1139.25,-37.84 1135.75,-47.84 1142.75,-47.84"/>
</g>
<!-- gar&#45;playbook&#45;refine -->
<g id="node14" class="node">
<title>gar&#45;playbook&#45;refine</title>
<path fill="#ffffff" stroke="black" d="M1297.75,-36C1297.75,-36 1212.75,-36 1212.75,-36 1206.75,-36 1200.75,-30 1200.75,-24 1200.75,-24 1200.75,-12 1200.75,-12 1200.75,-6 1206.75,0 1212.75,0 1212.75,0 1297.75,0 1297.75,0 1303.75,0 1309.75,-6 1309.75,-12 1309.75,-12 1309.75,-24 1309.75,-24 1309.75,-30 1303.75,-36 1297.75,-36"/>
<text xml:space="preserve" text-anchor="middle" x="1255.25" y="-13.55" font-family="Helvetica,sans-Serif" font-size="11.00">gar&#45;playbook&#45;refine</text>
</g>
<!-- gptel&#45;agent&#45;runtime&#45;&gt;gar&#45;playbook&#45;refine -->
<g id="edge13" class="edge">
<title>gptel&#45;agent&#45;runtime&#45;&gt;gar&#45;playbook&#45;refine</title>
<path fill="none" stroke="#666666" d="M1166.45,-75.65C1181.9,-65.79 1201.46,-53.32 1218.28,-42.58"/>
<polygon fill="#666666" stroke="#666666" points="1220,-45.64 1226.55,-37.31 1216.23,-39.74 1220,-45.64"/>
</g>
<!-- gar&#45;playbook&#45;experiment -->
<g id="node15" class="node">
<title>gar&#45;playbook&#45;experiment</title>
<path fill="#ffffff" stroke="black" d="M1454.88,-36C1454.88,-36 1343.62,-36 1343.62,-36 1337.62,-36 1331.62,-30 1331.62,-24 1331.62,-24 1331.62,-12 1331.62,-12 1331.62,-6 1337.62,0 1343.62,0 1343.62,0 1454.88,0 1454.88,0 1460.88,0 1466.88,-6 1466.88,-12 1466.88,-12 1466.88,-24 1466.88,-24 1466.88,-30 1460.88,-36 1454.88,-36"/>
<text xml:space="preserve" text-anchor="middle" x="1399.25" y="-13.55" font-family="Helvetica,sans-Serif" font-size="11.00">gar&#45;playbook&#45;experiment</text>
</g>
<!-- gptel&#45;agent&#45;runtime&#45;&gt;gar&#45;playbook&#45;experiment -->
<g id="edge14" class="edge">
<title>gptel&#45;agent&#45;runtime&#45;&gt;gar&#45;playbook&#45;experiment</title>
<path fill="none" stroke="#666666" d="M1194.39,-77.31C1232.98,-66.32 1284.91,-51.54 1326.84,-39.61"/>
<polygon fill="#666666" stroke="#666666" points="1327.7,-43 1336.36,-36.9 1325.79,-36.27 1327.7,-43"/>
</g>
<!-- gar&#45;memory&#45;sqlite -->
<g id="node16" class="node">
<title>gar&#45;memory&#45;sqlite</title>
<path fill="#ffffff" stroke="black" d="M1579.75,-36C1579.75,-36 1500.75,-36 1500.75,-36 1494.75,-36 1488.75,-30 1488.75,-24 1488.75,-24 1488.75,-12 1488.75,-12 1488.75,-6 1494.75,0 1500.75,0 1500.75,0 1579.75,0 1579.75,0 1585.75,0 1591.75,-6 1591.75,-12 1591.75,-12 1591.75,-24 1591.75,-24 1591.75,-30 1585.75,-36 1579.75,-36"/>
<text xml:space="preserve" text-anchor="middle" x="1540.25" y="-13.55" font-family="Helvetica,sans-Serif" font-size="11.00">gar&#45;memory&#45;sqlite</text>
</g>
<!-- gptel&#45;agent&#45;runtime&#45;&gt;gar&#45;memory&#45;sqlite -->
<g id="edge15" class="edge">
<title>gptel&#45;agent&#45;runtime&#45;&gt;gar&#45;memory&#45;sqlite</title>
<path fill="none" stroke="#666666" d="M1194.48,-85.47C1259.61,-76.19 1371.3,-59.07 1477.65,-35.98"/>
<polygon fill="#666666" stroke="#666666" points="1478.09,-39.47 1487.11,-33.91 1476.59,-32.63 1478.09,-39.47"/>
</g>
<!-- gar&#45;skills&#45;md -->
<g id="node17" class="node">
<title>gar&#45;skills&#45;md</title>
<path fill="#ffffff" stroke="black" d="M1678.62,-36C1678.62,-36 1625.88,-36 1625.88,-36 1619.88,-36 1613.88,-30 1613.88,-24 1613.88,-24 1613.88,-12 1613.88,-12 1613.88,-6 1619.88,0 1625.88,0 1625.88,0 1678.62,0 1678.62,0 1684.62,0 1690.62,-6 1690.62,-12 1690.62,-12 1690.62,-24 1690.62,-24 1690.62,-30 1684.62,-36 1678.62,-36"/>
<text xml:space="preserve" text-anchor="middle" x="1652.25" y="-13.55" font-family="Helvetica,sans-Serif" font-size="11.00">gar&#45;skills&#45;md</text>
</g>
<!-- gptel&#45;agent&#45;runtime&#45;&gt;gar&#45;skills&#45;md -->
<g id="edge16" class="edge">
<title>gptel&#45;agent&#45;runtime&#45;&gt;gar&#45;skills&#45;md</title>
<path fill="none" stroke="#666666" d="M1194.55,-90C1280.14,-84.53 1449.79,-70.4 1602.46,-35.83"/>
<polygon fill="#666666" stroke="#666666" points="1602.99,-39.3 1611.94,-33.64 1601.41,-32.48 1602.99,-39.3"/>
</g>
<!-- gar&#45;tools -->
<g id="node18" class="node">
<title>gar&#45;tools</title>
<path fill="#f5f5f5" stroke="black" d="M1758.25,-36C1758.25,-36 1724.25,-36 1724.25,-36 1718.25,-36 1712.25,-30 1712.25,-24 1712.25,-24 1712.25,-12 1712.25,-12 1712.25,-6 1718.25,0 1724.25,0 1724.25,0 1758.25,0 1758.25,0 1764.25,0 1770.25,-6 1770.25,-12 1770.25,-12 1770.25,-24 1770.25,-24 1770.25,-30 1764.25,-36 1758.25,-36"/>
<text xml:space="preserve" text-anchor="middle" x="1741.25" y="-13.55" font-family="Helvetica,sans-Serif" font-size="11.00">gar&#45;tools</text>
</g>
<!-- gptel&#45;agent&#45;runtime&#45;&gt;gar&#45;tools -->
<g id="edge17" class="edge">
<title>gptel&#45;agent&#45;runtime&#45;&gt;gar&#45;tools</title>
<path fill="none" stroke="#666666" d="M1194.46,-92.86C1294.34,-91.43 1511.36,-82.94 1700.88,-35.46"/>
<polygon fill="#666666" stroke="#666666" points="1701.6,-38.89 1710.42,-33.02 1699.87,-32.1 1701.6,-38.89"/>
</g>
<!-- gar&#45;backend -->
<g id="node19" class="node">
<title>gar&#45;backend</title>
<path fill="#f5f5f5" stroke="black" d="M1856.25,-36C1856.25,-36 1804.25,-36 1804.25,-36 1798.25,-36 1792.25,-30 1792.25,-24 1792.25,-24 1792.25,-12 1792.25,-12 1792.25,-6 1798.25,0 1804.25,0 1804.25,0 1856.25,0 1856.25,0 1862.25,0 1868.25,-6 1868.25,-12 1868.25,-12 1868.25,-24 1868.25,-24 1868.25,-30 1862.25,-36 1856.25,-36"/>
<text xml:space="preserve" text-anchor="middle" x="1830.25" y="-13.55" font-family="Helvetica,sans-Serif" font-size="11.00">gar&#45;backend</text>
</g>
<!-- gptel&#45;agent&#45;runtime&#45;&gt;gar&#45;backend -->
<g id="edge18" class="edge">
<title>gptel&#45;agent&#45;runtime&#45;&gt;gar&#45;backend</title>
<path fill="none" stroke="#666666" d="M1194.46,-92.63C1304.55,-90.93 1559,-82.11 1780.78,-35.66"/>
<polygon fill="#666666" stroke="#666666" points="1781.45,-39.09 1790.51,-33.59 1780,-32.25 1781.45,-39.09"/>
</g>
<!-- gar&#45;directives -->
<g id="node20" class="node">
<title>gar&#45;directives</title>
<path fill="#f5f5f5" stroke="black" d="M1958.5,-36C1958.5,-36 1902,-36 1902,-36 1896,-36 1890,-30 1890,-24 1890,-24 1890,-12 1890,-12 1890,-6 1896,0 1902,0 1902,0 1958.5,0 1958.5,0 1964.5,0 1970.5,-6 1970.5,-12 1970.5,-12 1970.5,-24 1970.5,-24 1970.5,-30 1964.5,-36 1958.5,-36"/>
<text xml:space="preserve" text-anchor="middle" x="1930.25" y="-13.55" font-family="Helvetica,sans-Serif" font-size="11.00">gar&#45;directives</text>
</g>
<!-- gptel&#45;agent&#45;runtime&#45;&gt;gar&#45;directives -->
<g id="edge19" class="edge">
<title>gptel&#45;agent&#45;runtime&#45;&gt;gar&#45;directives</title>
<path fill="none" stroke="#666666" d="M1194.19,-93.33C1316.1,-93.1 1618.25,-87.13 1878.39,-35.78"/>
<polygon fill="#666666" stroke="#666666" points="1878.97,-39.23 1888.09,-33.83 1877.59,-32.37 1878.97,-39.23"/>
</g>
<!-- gar&#45;context -->
<g id="node21" class="node">
<title>gar&#45;context</title>
<path fill="#f5f5f5" stroke="black" d="M2050.25,-36C2050.25,-36 2004.25,-36 2004.25,-36 1998.25,-36 1992.25,-30 1992.25,-24 1992.25,-24 1992.25,-12 1992.25,-12 1992.25,-6 1998.25,0 2004.25,0 2004.25,0 2050.25,0 2050.25,0 2056.25,0 2062.25,-6 2062.25,-12 2062.25,-12 2062.25,-24 2062.25,-24 2062.25,-30 2056.25,-36 2050.25,-36"/>
<text xml:space="preserve" text-anchor="middle" x="2027.25" y="-13.55" font-family="Helvetica,sans-Serif" font-size="11.00">gar&#45;context</text>
</g>
<!-- gptel&#45;agent&#45;runtime&#45;&gt;gar&#45;context -->
<g id="edge20" class="edge">
<title>gptel&#45;agent&#45;runtime&#45;&gt;gar&#45;context</title>
<path fill="none" stroke="#666666" d="M1194.43,-91.32C1353.11,-86.19 1809.53,-69.1 1980.78,-35.5"/>
<polygon fill="#666666" stroke="#666666" points="1981.32,-38.96 1990.41,-33.51 1979.91,-32.11 1981.32,-38.96"/>
</g>
<!-- gar&#45;executor -->
<g id="node22" class="node">
<title>gar&#45;executor</title>
<path fill="#f5f5f5" stroke="black" d="M2148.62,-36C2148.62,-36 2095.88,-36 2095.88,-36 2089.88,-36 2083.88,-30 2083.88,-24 2083.88,-24 2083.88,-12 2083.88,-12 2083.88,-6 2089.88,0 2095.88,0 2095.88,0 2148.62,0 2148.62,0 2154.62,0 2160.62,-6 2160.62,-12 2160.62,-12 2160.62,-24 2160.62,-24 2160.62,-30 2154.62,-36 2148.62,-36"/>
<text xml:space="preserve" text-anchor="middle" x="2122.25" y="-13.55" font-family="Helvetica,sans-Serif" font-size="11.00">gar&#45;executor</text>
</g>
<!-- gptel&#45;agent&#45;runtime&#45;&gt;gar&#45;executor -->
<g id="edge21" class="edge">
<title>gptel&#45;agent&#45;runtime&#45;&gt;gar&#45;executor</title>
<path fill="none" stroke="#666666" d="M1194.48,-91.61C1364.94,-87 1882.12,-70.65 2072.23,-35.69"/>
<polygon fill="#666666" stroke="#666666" points="2072.82,-39.14 2081.98,-33.81 2071.5,-32.27 2072.82,-39.14"/>
</g>
<!-- gar&#45;agents -->
<g id="node23" class="node">
<title>gar&#45;agents</title>
<path fill="#f5f5f5" stroke="black" d="M2238.12,-36C2238.12,-36 2194.38,-36 2194.38,-36 2188.38,-36 2182.38,-30 2182.38,-24 2182.38,-24 2182.38,-12 2182.38,-12 2182.38,-6 2188.38,0 2194.38,0 2194.38,0 2238.12,0 2238.12,0 2244.12,0 2250.12,-6 2250.12,-12 2250.12,-12 2250.12,-24 2250.12,-24 2250.12,-30 2244.12,-36 2238.12,-36"/>
<text xml:space="preserve" text-anchor="middle" x="2216.25" y="-13.55" font-family="Helvetica,sans-Serif" font-size="11.00">gar&#45;agents</text>
</g>
<!-- gptel&#45;agent&#45;runtime&#45;&gt;gar&#45;agents -->
<g id="edge22" class="edge">
<title>gptel&#45;agent&#45;runtime&#45;&gt;gar&#45;agents</title>
<path fill="none" stroke="#666666" d="M1194.36,-92.17C1376.74,-89.09 1960.46,-76.43 2170.94,-35.4"/>
<polygon fill="#666666" stroke="#666666" points="2171.6,-38.84 2180.69,-33.41 2170.2,-31.98 2171.6,-38.84"/>
</g>
<!-- gar&#45;loop -->
<g id="node24" class="node">
<title>gar&#45;loop</title>
<path fill="#f9d6d6" stroke="black" d="M2316.12,-36C2316.12,-36 2284.38,-36 2284.38,-36 2278.38,-36 2272.38,-30 2272.38,-24 2272.38,-24 2272.38,-12 2272.38,-12 2272.38,-6 2278.38,0 2284.38,0 2284.38,0 2316.12,0 2316.12,0 2322.12,0 2328.12,-6 2328.12,-12 2328.12,-12 2328.12,-24 2328.12,-24 2328.12,-30 2322.12,-36 2316.12,-36"/>
<text xml:space="preserve" text-anchor="middle" x="2300.25" y="-13.55" font-family="Helvetica,sans-Serif" font-size="11.00">gar&#45;loop</text>
</g>
<!-- gptel&#45;agent&#45;runtime&#45;&gt;gar&#45;loop -->
<g id="edge23" class="edge">
<title>gptel&#45;agent&#45;runtime&#45;&gt;gar&#45;loop</title>
<path fill="none" stroke="#666666" d="M1194.41,-92.81C1387.51,-91.75 2033.08,-84.73 2260.94,-35.21"/>
<polygon fill="#666666" stroke="#666666" points="2261.67,-38.63 2270.64,-33 2260.11,-31.81 2261.67,-38.63"/>
</g>
</g>
</svg>
