<?xml version="1.0" encoding="UTF-8" standalone="no"?>
<!DOCTYPE svg PUBLIC "-//W3C//DTD SVG 1.1//EN"
 "http://www.w3.org/Graphics/SVG/1.1/DTD/svg11.dtd">
<!-- Generated by graphviz version 14.1.5 (20260411.2331)
 -->
<!-- Title: gptel_agent_runtime Pages: 1 -->
<svg width="1723pt" height="120pt"
 viewBox="0.00 0.00 1723.00 120.00" xmlns="http://www.w3.org/2000/svg" xmlns:xlink="http://www.w3.org/1999/xlink">
<g id="graph0" class="graph" transform="scale(1 1) rotate(0) translate(4 116)">
<title>gptel_agent_runtime</title>
<polygon fill="white" stroke="none" points="-4,4 -4,-116 1719.12,-116 1719.12,4 -4,4"/>
<!-- gptel&#45;agent&#45;runtime -->
<g id="node1" class="node">
<title>gptel&#45;agent&#45;runtime</title>
<path fill="#fde2c4" stroke="black" d="M929.12,-112C929.12,-112 843.38,-112 843.38,-112 837.38,-112 831.38,-106 831.38,-100 831.38,-100 831.38,-88 831.38,-88 831.38,-82 837.38,-76 843.38,-76 843.38,-76 929.12,-76 929.12,-76 935.12,-76 941.12,-82 941.12,-88 941.12,-88 941.12,-100 941.12,-100 941.12,-106 935.12,-112 929.12,-112"/>
<text xml:space="preserve" text-anchor="middle" x="886.25" y="-89.55" font-family="Helvetica,sans-Serif" font-size="11.00">gptel&#45;agent&#45;runtime</text>
</g>
<!-- gar&#45;core -->
<g id="node2" class="node">
<title>gar&#45;core</title>
<path fill="#cce8cc" stroke="black" d="M44.5,-36C44.5,-36 12,-36 12,-36 6,-36 0,-30 0,-24 0,-24 0,-12 0,-12 0,-6 6,0 12,0 12,0 44.5,0 44.5,0 50.5,0 56.5,-6 56.5,-12 56.5,-12 56.5,-24 56.5,-24 56.5,-30 50.5,-36 44.5,-36"/>
<text xml:space="preserve" text-anchor="middle" x="28.25" y="-13.55" font-family="Helvetica,sans-Serif" font-size="11.00">gar&#45;core</text>
</g>
<!-- gptel&#45;agent&#45;runtime&#45;&gt;gar&#45;core -->
<g id="edge1" class="edge">
<title>gptel&#45;agent&#45;runtime&#45;&gt;gar&#45;core</title>
<path fill="none" stroke="#666666" d="M831.07,-91.61C675.27,-87.29 233.25,-72.35 67.79,-35.35"/>
<polygon fill="#666666" stroke="#666666" points="68.84,-32 58.3,-33.11 67.23,-38.81 68.84,-32"/>
</g>
<!-- gar&#45;substrate -->
<g id="node3" class="node">
<title>gar&#45;substrate</title>
<path fill="#dde8f5" stroke="black" d="M146.12,-36C146.12,-36 90.38,-36 90.38,-36 84.38,-36 78.38,-30 78.38,-24 78.38,-24 78.38,-12 78.38,-12 78.38,-6 84.38,0 90.38,0 90.38,0 146.12,0 146.12,0 152.12,0 158.12,-6 158.12,-12 158.12,-12 158.12,-24 158.12,-24 158.12,-30 152.12,-36 146.12,-36"/>
<text xml:space="preserve" text-anchor="middle" x="118.25" y="-13.55" font-family="Helvetica,sans-Serif" font-size="11.00">gar&#45;substrate</text>
</g>
<!-- gptel&#45;agent&#45;runtime&#45;&gt;gar&#45;substrate -->
<g id="edge2" class="edge">
<title>gptel&#45;agent&#45;runtime&#45;&gt;gar&#45;substrate</title>
<path fill="none" stroke="#666666" d="M831.2,-93.14C711.97,-92.48 421.14,-85.64 169.56,-35.63"/>
<polygon fill="#666666" stroke="#666666" points="170.35,-32.22 159.85,-33.67 168.96,-39.08 170.35,-32.22"/>
</g>
<!-- gar&#45;quarantine -->
<g id="node4" class="node">
<title>gar&#45;quarantine</title>
<path fill="#dde8f5" stroke="black" d="M254.5,-36C254.5,-36 192,-36 192,-36 186,-36 180,-30 180,-24 180,-24 180,-12 180,-12 180,-6 186,0 192,0 192,0 254.5,0 254.5,0 260.5,0 266.5,-6 266.5,-12 266.5,-12 266.5,-24 266.5,-24 266.5,-30 260.5,-36 254.5,-36"/>
<text xml:space="preserve" text-anchor="middle" x="223.25" y="-13.55" font-family="Helvetica,sans-Serif" font-size="11.00">gar&#45;quarantine</text>
</g>
<!-- gptel&#45;agent&#45;runtime&#45;&gt;gar&#45;quarantine -->
<g id="edge3" class="edge">
<title>gptel&#45;agent&#45;runtime&#45;&gt;gar&#45;quarantine</title>
<path fill="none" stroke="#666666" d="M831.2,-91.63C723.85,-88.13 479.44,-76.08 278.25,-36 278.13,-35.98 278.02,-35.95 277.9,-35.93"/>
<polygon fill="#666666" stroke="#666666" points="278.88,-32.56 268.35,-33.72 277.3,-39.38 278.88,-32.56"/>
</g>
<!-- gar&#45;skeptic -->
<g id="node5" class="node">
<title>gar&#45;skeptic</title>
<path fill="#dde8f5" stroke="black" d="M345.5,-36C345.5,-36 301,-36 301,-36 295,-36 289,-30 289,-24 289,-24 289,-12 289,-12 289,-6 295,0 301,0 301,0 345.5,0 345.5,0 351.5,0 357.5,-6 357.5,-12 357.5,-12 357.5,-24 357.5,-24 357.5,-30 351.5,-36 345.5,-36"/>
<text xml:space="preserve" text-anchor="middle" x="323.25" y="-13.55" font-family="Helvetica,sans-Serif" font-size="11.00">gar&#45;skeptic</text>
</g>
<!-- gptel&#45;agent&#45;runtime&#45;&gt;gar&#45;skeptic -->
<g id="edge4" class="edge">
<title>gptel&#45;agent&#45;runtime&#45;&gt;gar&#45;skeptic</title>
<path fill="none" stroke="#666666" d="M831.03,-91.47C737.49,-87.89 542.08,-76.18 368.97,-35.71"/>
<polygon fill="#666666" stroke="#666666" points="369.87,-32.32 359.34,-33.41 368.25,-39.13 369.87,-32.32"/>
</g>
<!-- gar&#45;skeptic&#45;model -->
<g id="node6" class="node">
<title>gar&#45;skeptic&#45;model</title>
<path fill="#ffffff" stroke="black" d="M469,-36C469,-36 391.5,-36 391.5,-36 385.5,-36 379.5,-30 379.5,-24 379.5,-24 379.5,-12 379.5,-12 379.5,-6 385.5,0 391.5,0 391.5,0 469,0 469,0 475,0 481,-6 481,-12 481,-12 481,-24 481,-24 481,-30 475,-36 469,-36"/>
<text xml:space="preserve" text-anchor="middle" x="430.25" y="-13.55" font-family="Helvetica,sans-Serif" font-size="11.00">gar&#45;skeptic&#45;model</text>
</g>
<!-- gptel&#45;agent&#45;runtime&#45;&gt;gar&#45;skeptic&#45;model -->
<g id="edge5" class="edge">
<title>gptel&#45;agent&#45;runtime&#45;&gt;gar&#45;skeptic&#45;model</title>
<path fill="none" stroke="#666666" d="M831.06,-87.2C756.68,-78.91 620.02,-61.97 492.36,-35.82"/>
<polygon fill="#666666" stroke="#666666" points="493.2,-32.42 482.7,-33.82 491.78,-39.28 493.2,-32.42"/>
</g>
<!-- gar&#45;verifier -->
<g id="node7" class="node">
<title>gar&#45;verifier</title>
<path fill="#ffffff" stroke="black" d="M559.12,-36C559.12,-36 515.38,-36 515.38,-36 509.38,-36 503.38,-30 503.38,-24 503.38,-24 503.38,-12 503.38,-12 503.38,-6 509.38,0 515.38,0 515.38,0 559.12,0 559.12,0 565.12,0 571.12,-6 571.12,-12 571.12,-12 571.12,-24 571.12,-24 571.12,-30 565.12,-36 559.12,-36"/>
<text xml:space="preserve" text-anchor="middle" x="537.25" y="-13.55" font-family="Helvetica,sans-Serif" font-size="11.00">gar&#45;verifier</text>
</g>
<!-- gptel&#45;agent&#45;runtime&#45;&gt;gar&#45;verifier -->
<g id="edge6" class="edge">
<title>gptel&#45;agent&#45;runtime&#45;&gt;gar&#45;verifier</title>
<path fill="none" stroke="#666666" d="M830.94,-85.62C771.84,-77.07 675.39,-61.22 582.46,-35.7"/>
<polygon fill="#666666" stroke="#666666" points="583.47,-32.35 572.9,-33.03 581.59,-39.09 583.47,-32.35"/>
</g>
<!-- gar&#45;validator -->
<g id="node8" class="node">
<title>gar&#45;validator</title>
<path fill="#ffffff" stroke="black" d="M657.25,-36C657.25,-36 605.25,-36 605.25,-36 599.25,-36 593.25,-30 593.25,-24 593.25,-24 593.25,-12 593.25,-12 593.25,-6 599.25,0 605.25,0 605.25,0 657.25,0 657.25,0 663.25,0 669.25,-6 669.25,-12 669.25,-12 669.25,-24 669.25,-24 669.25,-30 663.25,-36 657.25,-36"/>
<text xml:space="preserve" text-anchor="middle" x="631.25" y="-13.55" font-family="Helvetica,sans-Serif" font-size="11.00">gar&#45;validator</text>
</g>
<!-- gptel&#45;agent&#45;runtime&#45;&gt;gar&#45;validator -->
<g id="edge7" class="edge">
<title>gptel&#45;agent&#45;runtime&#45;&gt;gar&#45;validator</title>
<path fill="none" stroke="#666666" d="M830.89,-78.71C791.69,-68.36 737.69,-53.63 680.42,-35.94"/>
<polygon fill="#666666" stroke="#666666" points="681.72,-32.68 671.14,-33.05 679.64,-39.36 681.72,-32.68"/>
</g>
<!-- gar&#45;policy -->
<g id="node9" class="node">
<title>gar&#45;policy</title>
<path fill="#dde8f5" stroke="black" d="M741.5,-36C741.5,-36 703,-36 703,-36 697,-36 691,-30 691,-24 691,-24 691,-12 691,-12 691,-6 697,0 703,0 703,0 741.5,0 741.5,0 747.5,0 753.5,-6 753.5,-12 753.5,-12 753.5,-24 753.5,-24 753.5,-30 747.5,-36 741.5,-36"/>
<text xml:space="preserve" text-anchor="middle" x="722.25" y="-13.55" font-family="Helvetica,sans-Serif" font-size="11.00">gar&#45;policy</text>
</g>
<!-- gptel&#45;agent&#45;runtime&#45;&gt;gar&#45;policy -->
<g id="edge8" class="edge">
<title>gptel&#45;agent&#45;runtime&#45;&gt;gar&#45;policy</title>
<path fill="none" stroke="#666666" d="M847.8,-75.65C822.67,-64.31 789.85,-49.5 764.07,-37.87"/>
<polygon fill="#666666" stroke="#666666" points="765.79,-34.81 755.24,-33.88 762.91,-41.19 765.79,-34.81"/>
</g>
<!-- gar&#45;mission&#45;control -->
<g id="node10" class="node">
<title>gar&#45;mission&#45;control</title>
<path fill="#f5f5f5" stroke="black" d="M871,-36C871,-36 787.5,-36 787.5,-36 781.5,-36 775.5,-30 775.5,-24 775.5,-24 775.5,-12 775.5,-12 775.5,-6 781.5,0 787.5,0 787.5,0 871,0 871,0 877,0 883,-6 883,-12 883,-12 883,-24 883,-24 883,-30 877,-36 871,-36"/>
<text xml:space="preserve" text-anchor="middle" x="829.25" y="-13.55" font-family="Helvetica,sans-Serif" font-size="11.00">gar&#45;mission&#45;control</text>
</g>
<!-- gptel&#45;agent&#45;runtime&#45;&gt;gar&#45;mission&#45;control -->
<g id="edge9" class="edge">
<title>gptel&#45;agent&#45;runtime&#45;&gt;gar&#45;mission&#45;control</title>
<path fill="none" stroke="#666666" d="M873.03,-75.84C866.03,-66.75 857.28,-55.4 849.45,-45.23"/>
<polygon fill="#666666" stroke="#666666" points="852.39,-43.31 843.52,-37.53 846.85,-47.58 852.39,-43.31"/>
</g>
<!-- gar&#45;canaries -->
<g id="node11" class="node">
<title>gar&#45;canaries</title>
<path fill="#f5f5f5" stroke="black" d="M969.25,-36C969.25,-36 917.25,-36 917.25,-36 911.25,-36 905.25,-30 905.25,-24 905.25,-24 905.25,-12 905.25,-12 905.25,-6 911.25,0 917.25,0 917.25,0 969.25,0 969.25,0 975.25,0 981.25,-6 981.25,-12 981.25,-12 981.25,-24 981.25,-24 981.25,-30 975.25,-36 969.25,-36"/>
<text xml:space="preserve" text-anchor="middle" x="943.25" y="-13.55" font-family="Helvetica,sans-Serif" font-size="11.00">gar&#45;canaries</text>
</g>
<!-- gptel&#45;agent&#45;runtime&#45;&gt;gar&#45;canaries -->
<g id="edge10" class="edge">
<title>gptel&#45;agent&#45;runtime&#45;&gt;gar&#45;canaries</title>
<path fill="none" stroke="#666666" d="M899.47,-75.84C906.47,-66.75 915.22,-55.4 923.05,-45.23"/>
<polygon fill="#666666" stroke="#666666" points="925.65,-47.58 928.98,-37.53 920.11,-43.31 925.65,-47.58"/>
</g>
<!-- gar&#45;memory -->
<g id="node12" class="node">
<title>gar&#45;memory</title>
<path fill="#f5f5f5" stroke="black" d="M1065.5,-36C1065.5,-36 1015,-36 1015,-36 1009,-36 1003,-30 1003,-24 1003,-24 1003,-12 1003,-12 1003,-6 1009,0 1015,0 1015,0 1065.5,0 1065.5,0 1071.5,0 1077.5,-6 1077.5,-12 1077.5,-12 1077.5,-24 1077.5,-24 1077.5,-30 1071.5,-36 1065.5,-36"/>
<text xml:space="preserve" text-anchor="middle" x="1040.25" y="-13.55" font-family="Helvetica,sans-Serif" font-size="11.00">gar&#45;memory</text>
</g>
<!-- gptel&#45;agent&#45;runtime&#45;&gt;gar&#45;memory -->
<g id="edge11" class="edge">
<title>gptel&#45;agent&#45;runtime&#45;&gt;gar&#45;memory</title>
<path fill="none" stroke="#666666" d="M922.36,-75.65C943.63,-65.43 970.78,-52.38 993.66,-41.39"/>
<polygon fill="#666666" stroke="#666666" points="994.97,-44.64 1002.47,-37.15 991.94,-38.33 994.97,-44.64"/>
</g>
<!-- gar&#45;tools -->
<g id="node13" class="node">
<title>gar&#45;tools</title>
<path fill="#f5f5f5" stroke="black" d="M1145.25,-36C1145.25,-36 1111.25,-36 1111.25,-36 1105.25,-36 1099.25,-30 1099.25,-24 1099.25,-24 1099.25,-12 1099.25,-12 1099.25,-6 1105.25,0 1111.25,0 1111.25,0 1145.25,0 1145.25,0 1151.25,0 1157.25,-6 1157.25,-12 1157.25,-12 1157.25,-24 1157.25,-24 1157.25,-30 1151.25,-36 1145.25,-36"/>
<text xml:space="preserve" text-anchor="middle" x="1128.25" y="-13.55" font-family="Helvetica,sans-Serif" font-size="11.00">gar&#45;tools</text>
</g>
<!-- gptel&#45;agent&#45;runtime&#45;&gt;gar&#45;tools -->
<g id="edge12" class="edge">
<title>gptel&#45;agent&#45;runtime&#45;&gt;gar&#45;tools</title>
<path fill="none" stroke="#666666" d="M941.28,-79.49C982.23,-68.95 1039.27,-53.24 1088.25,-36 1088.36,-35.96 1088.47,-35.92 1088.58,-35.88"/>
<polygon fill="#666666" stroke="#666666" points="1089.62,-39.23 1097.73,-32.41 1087.14,-32.69 1089.62,-39.23"/>
</g>
<!-- gar&#45;backend -->
<g id="node14" class="node">
<title>gar&#45;backend</title>
<path fill="#f5f5f5" stroke="black" d="M1243.25,-36C1243.25,-36 1191.25,-36 1191.25,-36 1185.25,-36 1179.25,-30 1179.25,-24 1179.25,-24 1179.25,-12 1179.25,-12 1179.25,-6 1185.25,0 1191.25,0 1191.25,0 1243.25,0 1243.25,0 1249.25,0 1255.25,-6 1255.25,-12 1255.25,-12 1255.25,-24 1255.25,-24 1255.25,-30 1249.25,-36 1243.25,-36"/>
<text xml:space="preserve" text-anchor="middle" x="1217.25" y="-13.55" font-family="Helvetica,sans-Serif" font-size="11.00">gar&#45;backend</text>
</g>
<!-- gptel&#45;agent&#45;runtime&#45;&gt;gar&#45;backend -->
<g id="edge13" class="edge">
<title>gptel&#45;agent&#45;runtime&#45;&gt;gar&#45;backend</title>
<path fill="none" stroke="#666666" d="M941.62,-84.08C996.51,-74.73 1083.09,-58.62 1168,-35.82"/>
<polygon fill="#666666" stroke="#666666" points="1168.7,-39.26 1177.43,-33.25 1166.86,-32.5 1168.7,-39.26"/>
</g>
<!-- gar&#45;directives -->
<g id="node15" class="node">
<title>gar&#45;directives</title>
<path fill="#f5f5f5" stroke="black" d="M1345.5,-36C1345.5,-36 1289,-36 1289,-36 1283,-36 1277,-30 1277,-24 1277,-24 1277,-12 1277,-12 1277,-6 1283,0 1289,0 1289,0 1345.5,0 1345.5,0 1351.5,0 1357.5,-6 1357.5,-12 1357.5,-12 1357.5,-24 1357.5,-24 1357.5,-30 1351.5,-36 1345.5,-36"/>
<text xml:space="preserve" text-anchor="middle" x="1317.25" y="-13.55" font-family="Helvetica,sans-Serif" font-size="11.00">gar&#45;directives</text>
</g>
<!-- gptel&#45;agent&#45;runtime&#45;&gt;gar&#45;directives -->
<g id="edge14" class="edge">
<title>gptel&#45;agent&#45;runtime&#45;&gt;gar&#45;directives</title>
<path fill="none" stroke="#666666" d="M941.57,-87.73C1013.88,-80.18 1144.46,-64.27 1265.57,-35.87"/>
<polygon fill="#666666" stroke="#666666" points="1266.12,-39.34 1275.04,-33.62 1264.5,-32.53 1266.12,-39.34"/>
</g>
<!-- gar&#45;context -->
<g id="node16" class="node">
<title>gar&#45;context</title>
<path fill="#f5f5f5" stroke="black" d="M1437.25,-36C1437.25,-36 1391.25,-36 1391.25,-36 1385.25,-36 1379.25,-30 1379.25,-24 1379.25,-24 1379.25,-12 1379.25,-12 1379.25,-6 1385.25,0 1391.25,0 1391.25,0 1437.25,0 1437.25,0 1443.25,0 1449.25,-6 1449.25,-12 1449.25,-12 1449.25,-24 1449.25,-24 1449.25,-30 1443.25,-36 1437.25,-36"/>
<text xml:space="preserve" text-anchor="middle" x="1414.25" y="-13.55" font-family="Helvetica,sans-Serif" font-size="11.00">gar&#45;context</text>
</g>
<!-- gptel&#45;agent&#45;runtime&#45;&gt;gar&#45;context -->
<g id="edge15" class="edge">
<title>gptel&#45;agent&#45;runtime&#45;&gt;gar&#45;context</title>
<path fill="none" stroke="#666666" d="M941.57,-90.7C1029.93,-86.11 1208.23,-73.08 1367.87,-35.64"/>
<polygon fill="#666666" stroke="#666666" points="1368.46,-39.1 1377.37,-33.38 1366.84,-32.29 1368.46,-39.1"/>
</g>
<!-- gar&#45;executor -->
<g id="node17" class="node">
<title>gar&#45;executor</title>
<path fill="#f5f5f5" stroke="black" d="M1535.62,-36C1535.62,-36 1482.88,-36 1482.88,-36 1476.88,-36 1470.88,-30 1470.88,-24 1470.88,-24 1470.88,-12 1470.88,-12 1470.88,-6 1476.88,0 1482.88,0 1482.88,0 1535.62,0 1535.62,0 1541.62,0 1547.62,-6 1547.62,-12 1547.62,-12 1547.62,-24 1547.62,-24 1547.62,-30 1541.62,-36 1535.62,-36"/>
<text xml:space="preserve" text-anchor="middle" x="1509.25" y="-13.55" font-family="Helvetica,sans-Serif" font-size="11.00">gar&#45;executor</text>
</g>
<!-- gptel&#45;agent&#45;runtime&#45;&gt;gar&#45;executor -->
<g id="edge16" class="edge">
<title>gptel&#45;agent&#45;runtime&#45;&gt;gar&#45;executor</title>
<path fill="none" stroke="#666666" d="M941.53,-91.81C1042.76,-88.71 1264.52,-77.61 1459.41,-35.79"/>
<polygon fill="#666666" stroke="#666666" points="1459.94,-39.26 1468.96,-33.71 1458.44,-32.42 1459.94,-39.26"/>
</g>
<!-- gar&#45;agents -->
<g id="node18" class="node">
<title>gar&#45;agents</title>
<path fill="#f5f5f5" stroke="black" d="M1625.12,-36C1625.12,-36 1581.38,-36 1581.38,-36 1575.38,-36 1569.38,-30 1569.38,-24 1569.38,-24 1569.38,-12 1569.38,-12 1569.38,-6 1575.38,0 1581.38,0 1581.38,0 1625.12,0 1625.12,0 1631.12,0 1637.12,-6 1637.12,-12 1637.12,-12 1637.12,-24 1637.12,-24 1637.12,-30 1631.12,-36 1625.12,-36"/>
<text xml:space="preserve" text-anchor="middle" x="1603.25" y="-13.55" font-family="Helvetica,sans-Serif" font-size="11.00">gar&#45;agents</text>
</g>
<!-- gptel&#45;agent&#45;runtime&#45;&gt;gar&#45;agents -->
<g id="edge17" class="edge">
<title>gptel&#45;agent&#45;runtime&#45;&gt;gar&#45;agents</title>
<path fill="none" stroke="#666666" d="M941.47,-93.44C1055.51,-93.25 1324.99,-87.12 1558.08,-35.49"/>
<polygon fill="#666666" stroke="#666666" points="1558.69,-38.94 1567.68,-33.33 1557.15,-32.11 1558.69,-38.94"/>
</g>
<!-- gar&#45;loop -->
<g id="node19" class="node">
<title>gar&#45;loop</title>
<path fill="#f9d6d6" stroke="black" d="M1703.12,-36C1703.12,-36 1671.38,-36 1671.38,-36 1665.38,-36 1659.38,-30 1659.38,-24 1659.38,-24 1659.38,-12 1659.38,-12 1659.38,-6 1665.38,0 1671.38,0 1671.38,0 1703.12,0 1703.12,0 1709.12,0 1715.12,-6 1715.12,-12 1715.12,-12 1715.12,-24 1715.12,-24 1715.12,-30 1709.12,-36 1703.12,-36"/>
<text xml:space="preserve" text-anchor="middle" x="1687.25" y="-13.55" font-family="Helvetica,sans-Serif" font-size="11.00">gar&#45;loop</text>
</g>
<!-- gptel&#45;agent&#45;runtime&#45;&gt;gar&#45;loop -->
<g id="edge18" class="edge">
<title>gptel&#45;agent&#45;runtime&#45;&gt;gar&#45;loop</title>
<path fill="none" stroke="#666666" d="M941.62,-91.27C1089.77,-86.26 1493.71,-70.06 1647.99,-35.23"/>
<polygon fill="#666666" stroke="#666666" points="1648.71,-38.66 1657.62,-32.93 1647.08,-31.85 1648.71,-38.66"/>
</g>
</g>
</svg>
