<?xml version="1.0" encoding="UTF-8" standalone="no"?>
<!DOCTYPE svg PUBLIC "-//W3C//DTD SVG 1.1//EN"
 "http://www.w3.org/Graphics/SVG/1.1/DTD/svg11.dtd">
<!-- Generated by graphviz version 14.1.5 (20260411.2331)
 -->
<!-- Title: gptel_agent_runtime Pages: 1 -->
<svg width="1825pt" height="120pt"
 viewBox="0.00 0.00 1825.00 120.00" xmlns="http://www.w3.org/2000/svg" xmlns:xlink="http://www.w3.org/1999/xlink">
<g id="graph0" class="graph" transform="scale(1 1) rotate(0) translate(4 116)">
<title>gptel_agent_runtime</title>
<polygon fill="white" stroke="none" points="-4,4 -4,-116 1821.12,-116 1821.12,4 -4,4"/>
<!-- gptel&#45;agent&#45;runtime -->
<g id="node1" class="node">
<title>gptel&#45;agent&#45;runtime</title>
<path fill="#fde2c4" stroke="black" d="M986.12,-112C986.12,-112 900.38,-112 900.38,-112 894.38,-112 888.38,-106 888.38,-100 888.38,-100 888.38,-88 888.38,-88 888.38,-82 894.38,-76 900.38,-76 900.38,-76 986.12,-76 986.12,-76 992.12,-76 998.12,-82 998.12,-88 998.12,-88 998.12,-100 998.12,-100 998.12,-106 992.12,-112 986.12,-112"/>
<text xml:space="preserve" text-anchor="middle" x="943.25" y="-89.55" font-family="Helvetica,sans-Serif" font-size="11.00">gptel&#45;agent&#45;runtime</text>
</g>
<!-- gar&#45;core -->
<g id="node2" class="node">
<title>gar&#45;core</title>
<path fill="#cce8cc" stroke="black" d="M44.5,-36C44.5,-36 12,-36 12,-36 6,-36 0,-30 0,-24 0,-24 0,-12 0,-12 0,-6 6,0 12,0 12,0 44.5,0 44.5,0 50.5,0 56.5,-6 56.5,-12 56.5,-12 56.5,-24 56.5,-24 56.5,-30 50.5,-36 44.5,-36"/>
<text xml:space="preserve" text-anchor="middle" x="28.25" y="-13.55" font-family="Helvetica,sans-Serif" font-size="11.00">gar&#45;core</text>
</g>
<!-- gptel&#45;agent&#45;runtime&#45;&gt;gar&#45;core -->
<g id="edge1" class="edge">
<title>gptel&#45;agent&#45;runtime&#45;&gt;gar&#45;core</title>
<path fill="none" stroke="#666666" d="M888.13,-91.9C724.88,-88.25 244.89,-74.66 67.8,-35.34"/>
<polygon fill="#666666" stroke="#666666" points="68.84,-31.99 58.3,-33.12 67.24,-38.81 68.84,-31.99"/>
</g>
<!-- gar&#45;substrate -->
<g id="node3" class="node">
<title>gar&#45;substrate</title>
<path fill="#dde8f5" stroke="black" d="M146.12,-36C146.12,-36 90.38,-36 90.38,-36 84.38,-36 78.38,-30 78.38,-24 78.38,-24 78.38,-12 78.38,-12 78.38,-6 84.38,0 90.38,0 90.38,0 146.12,0 146.12,0 152.12,0 158.12,-6 158.12,-12 158.12,-12 158.12,-24 158.12,-24 158.12,-30 152.12,-36 146.12,-36"/>
<text xml:space="preserve" text-anchor="middle" x="118.25" y="-13.55" font-family="Helvetica,sans-Serif" font-size="11.00">gar&#45;substrate</text>
</g>
<!-- gptel&#45;agent&#45;runtime&#45;&gt;gar&#45;substrate -->
<g id="edge2" class="edge">
<title>gptel&#45;agent&#45;runtime&#45;&gt;gar&#45;substrate</title>
<path fill="none" stroke="#666666" d="M888.19,-93.6C762.19,-93.98 443.36,-89.3 169.32,-35.58"/>
<polygon fill="#666666" stroke="#666666" points="170.34,-32.21 159.85,-33.69 168.98,-39.07 170.34,-32.21"/>
</g>
<!-- gar&#45;quarantine -->
<g id="node4" class="node">
<title>gar&#45;quarantine</title>
<path fill="#dde8f5" stroke="black" d="M254.5,-36C254.5,-36 192,-36 192,-36 186,-36 180,-30 180,-24 180,-24 180,-12 180,-12 180,-6 186,0 192,0 192,0 254.5,0 254.5,0 260.5,0 266.5,-6 266.5,-12 266.5,-12 266.5,-24 266.5,-24 266.5,-30 260.5,-36 254.5,-36"/>
<text xml:space="preserve" text-anchor="middle" x="223.25" y="-13.55" font-family="Helvetica,sans-Serif" font-size="11.00">gar&#45;quarantine</text>
</g>
<!-- gptel&#45;agent&#45;runtime&#45;&gt;gar&#45;quarantine -->
<g id="edge3" class="edge">
<title>gptel&#45;agent&#45;runtime&#45;&gt;gar&#45;quarantine</title>
<path fill="none" stroke="#666666" d="M887.96,-92.25C773.24,-89.82 501.45,-79.54 278.25,-36 278.13,-35.98 278.02,-35.95 277.9,-35.93"/>
<polygon fill="#666666" stroke="#666666" points="278.87,-32.56 268.34,-33.74 277.31,-39.39 278.87,-32.56"/>
</g>
<!-- gar&#45;skeptic -->
<g id="node5" class="node">
<title>gar&#45;skeptic</title>
<path fill="#dde8f5" stroke="black" d="M345.5,-36C345.5,-36 301,-36 301,-36 295,-36 289,-30 289,-24 289,-24 289,-12 289,-12 289,-6 295,0 301,0 301,0 345.5,0 345.5,0 351.5,0 357.5,-6 357.5,-12 357.5,-12 357.5,-24 357.5,-24 357.5,-30 351.5,-36 345.5,-36"/>
<text xml:space="preserve" text-anchor="middle" x="323.25" y="-13.55" font-family="Helvetica,sans-Serif" font-size="11.00">gar&#45;skeptic</text>
</g>
<!-- gptel&#45;agent&#45;runtime&#45;&gt;gar&#45;skeptic -->
<g id="edge4" class="edge">
<title>gptel&#45;agent&#45;runtime&#45;&gt;gar&#45;skeptic</title>
<path fill="none" stroke="#666666" d="M888.17,-92.32C786.77,-90.03 564.01,-80.23 368.89,-35.67"/>
<polygon fill="#666666" stroke="#666666" points="369.86,-32.3 359.33,-33.44 368.28,-39.12 369.86,-32.3"/>
</g>
<!-- gar&#45;skeptic&#45;model -->
<g id="node6" class="node">
<title>gar&#45;skeptic&#45;model</title>
<path fill="#ffffff" stroke="black" d="M469,-36C469,-36 391.5,-36 391.5,-36 385.5,-36 379.5,-30 379.5,-24 379.5,-24 379.5,-12 379.5,-12 379.5,-6 385.5,0 391.5,0 391.5,0 469,0 469,0 475,0 481,-6 481,-12 481,-12 481,-24 481,-24 481,-30 475,-36 469,-36"/>
<text xml:space="preserve" text-anchor="middle" x="430.25" y="-13.55" font-family="Helvetica,sans-Serif" font-size="11.00">gar&#45;skeptic&#45;model</text>
</g>
<!-- gptel&#45;agent&#45;runtime&#45;&gt;gar&#45;skeptic&#45;model -->
<g id="edge5" class="edge">
<title>gptel&#45;agent&#45;runtime&#45;&gt;gar&#45;skeptic&#45;model</title>
<path fill="none" stroke="#666666" d="M888,-88.56C804.65,-81.31 641.71,-64.97 492.39,-35.8"/>
<polygon fill="#666666" stroke="#666666" points="493.18,-32.39 482.69,-33.88 491.82,-39.26 493.18,-32.39"/>
</g>
<!-- gar&#45;verifier -->
<g id="node7" class="node">
<title>gar&#45;verifier</title>
<path fill="#ffffff" stroke="black" d="M559.12,-36C559.12,-36 515.38,-36 515.38,-36 509.38,-36 503.38,-30 503.38,-24 503.38,-24 503.38,-12 503.38,-12 503.38,-6 509.38,0 515.38,0 515.38,0 559.12,0 559.12,0 565.12,0 571.12,-6 571.12,-12 571.12,-12 571.12,-24 571.12,-24 571.12,-30 565.12,-36 559.12,-36"/>
<text xml:space="preserve" text-anchor="middle" x="537.25" y="-13.55" font-family="Helvetica,sans-Serif" font-size="11.00">gar&#45;verifier</text>
</g>
<!-- gptel&#45;agent&#45;runtime&#45;&gt;gar&#45;verifier -->
<g id="edge6" class="edge">
<title>gptel&#45;agent&#45;runtime&#45;&gt;gar&#45;verifier</title>
<path fill="none" stroke="#666666" d="M888.1,-87.84C818.89,-80.58 696.61,-65.19 582.43,-35.63"/>
<polygon fill="#666666" stroke="#666666" points="583.44,-32.28 572.87,-33.12 581.65,-39.05 583.44,-32.28"/>
</g>
<!-- gar&#45;validator -->
<g id="node8" class="node">
<title>gar&#45;validator</title>
<path fill="#ffffff" stroke="black" d="M657.25,-36C657.25,-36 605.25,-36 605.25,-36 599.25,-36 593.25,-30 593.25,-24 593.25,-24 593.25,-12 593.25,-12 593.25,-6 599.25,0 605.25,0 605.25,0 657.25,0 657.25,0 663.25,0 669.25,-6 669.25,-12 669.25,-12 669.25,-24 669.25,-24 669.25,-30 663.25,-36 657.25,-36"/>
<text xml:space="preserve" text-anchor="middle" x="631.25" y="-13.55" font-family="Helvetica,sans-Serif" font-size="11.00">gar&#45;validator</text>
</g>
<!-- gptel&#45;agent&#45;runtime&#45;&gt;gar&#45;validator -->
<g id="edge7" class="edge">
<title>gptel&#45;agent&#45;runtime&#45;&gt;gar&#45;validator</title>
<path fill="none" stroke="#666666" d="M888.12,-83.06C836.99,-73.39 758.64,-57.43 680.63,-35.88"/>
<polygon fill="#666666" stroke="#666666" points="681.66,-32.54 671.09,-33.21 679.77,-39.28 681.66,-32.54"/>
</g>
<!-- gar&#45;policy -->
<g id="node9" class="node">
<title>gar&#45;policy</title>
<path fill="#dde8f5" stroke="black" d="M741.5,-36C741.5,-36 703,-36 703,-36 697,-36 691,-30 691,-24 691,-24 691,-12 691,-12 691,-6 697,0 703,0 703,0 741.5,0 741.5,0 747.5,0 753.5,-6 753.5,-12 753.5,-12 753.5,-24 753.5,-24 753.5,-30 747.5,-36 741.5,-36"/>
<text xml:space="preserve" text-anchor="middle" x="722.25" y="-13.55" font-family="Helvetica,sans-Serif" font-size="11.00">gar&#45;policy</text>
</g>
<!-- gptel&#45;agent&#45;runtime&#45;&gt;gar&#45;policy -->
<g id="edge8" class="edge">
<title>gptel&#45;agent&#45;runtime&#45;&gt;gar&#45;policy</title>
<path fill="none" stroke="#666666" d="M888.05,-76.61C854.97,-66.52 811.92,-52.92 764.61,-35.97"/>
<polygon fill="#666666" stroke="#666666" points="765.82,-32.69 755.22,-32.58 763.44,-39.27 765.82,-32.69"/>
</g>
<!-- gar&#45;mission&#45;control -->
<g id="node10" class="node">
<title>gar&#45;mission&#45;control</title>
<path fill="#f5f5f5" stroke="black" d="M871,-36C871,-36 787.5,-36 787.5,-36 781.5,-36 775.5,-30 775.5,-24 775.5,-24 775.5,-12 775.5,-12 775.5,-6 781.5,0 787.5,0 787.5,0 871,0 871,0 877,0 883,-6 883,-12 883,-12 883,-24 883,-24 883,-30 877,-36 871,-36"/>
<text xml:space="preserve" text-anchor="middle" x="829.25" y="-13.55" font-family="Helvetica,sans-Serif" font-size="11.00">gar&#45;mission&#45;control</text>
</g>
<!-- gptel&#45;agent&#45;runtime&#45;&gt;gar&#45;mission&#45;control -->
<g id="edge9" class="edge">
<title>gptel&#45;agent&#45;runtime&#45;&gt;gar&#45;mission&#45;control</title>
<path fill="none" stroke="#666666" d="M916.52,-75.65C901.34,-65.79 882.12,-53.32 865.58,-42.58"/>
<polygon fill="#666666" stroke="#666666" points="867.77,-39.83 857.48,-37.32 863.96,-45.7 867.77,-39.83"/>
</g>
<!-- gar&#45;canaries -->
<g id="node11" class="node">
<title>gar&#45;canaries</title>
<path fill="#f5f5f5" stroke="black" d="M969.25,-36C969.25,-36 917.25,-36 917.25,-36 911.25,-36 905.25,-30 905.25,-24 905.25,-24 905.25,-12 905.25,-12 905.25,-6 911.25,0 917.25,0 917.25,0 969.25,0 969.25,0 975.25,0 981.25,-6 981.25,-12 981.25,-12 981.25,-24 981.25,-24 981.25,-30 975.25,-36 969.25,-36"/>
<text xml:space="preserve" text-anchor="middle" x="943.25" y="-13.55" font-family="Helvetica,sans-Serif" font-size="11.00">gar&#45;canaries</text>
</g>
<!-- gptel&#45;agent&#45;runtime&#45;&gt;gar&#45;canaries -->
<g id="edge10" class="edge">
<title>gptel&#45;agent&#45;runtime&#45;&gt;gar&#45;canaries</title>
<path fill="none" stroke="#666666" d="M943.25,-75.84C943.25,-67.49 943.25,-57.23 943.25,-47.74"/>
<polygon fill="#666666" stroke="#666666" points="946.75,-47.84 943.25,-37.84 939.75,-47.84 946.75,-47.84"/>
</g>
<!-- gar&#45;memory -->
<g id="node12" class="node">
<title>gar&#45;memory</title>
<path fill="#f5f5f5" stroke="black" d="M1065.5,-36C1065.5,-36 1015,-36 1015,-36 1009,-36 1003,-30 1003,-24 1003,-24 1003,-12 1003,-12 1003,-6 1009,0 1015,0 1015,0 1065.5,0 1065.5,0 1071.5,0 1077.5,-6 1077.5,-12 1077.5,-12 1077.5,-24 1077.5,-24 1077.5,-30 1071.5,-36 1065.5,-36"/>
<text xml:space="preserve" text-anchor="middle" x="1040.25" y="-13.55" font-family="Helvetica,sans-Serif" font-size="11.00">gar&#45;memory</text>
</g>
<!-- gptel&#45;agent&#45;runtime&#45;&gt;gar&#45;memory -->
<g id="edge11" class="edge">
<title>gptel&#45;agent&#45;runtime&#45;&gt;gar&#45;memory</title>
<path fill="none" stroke="#666666" d="M965.75,-75.84C978.51,-66.1 994.68,-53.76 1008.7,-43.07"/>
<polygon fill="#666666" stroke="#666666" points="1010.51,-46.09 1016.34,-37.24 1006.26,-40.53 1010.51,-46.09"/>
</g>
<!-- gar&#45;trajectory -->
<g id="node13" class="node">
<title>gar&#45;trajectory</title>
<path fill="#ffffff" stroke="black" d="M1167.12,-36C1167.12,-36 1111.38,-36 1111.38,-36 1105.38,-36 1099.38,-30 1099.38,-24 1099.38,-24 1099.38,-12 1099.38,-12 1099.38,-6 1105.38,0 1111.38,0 1111.38,0 1167.12,0 1167.12,0 1173.12,0 1179.12,-6 1179.12,-12 1179.12,-12 1179.12,-24 1179.12,-24 1179.12,-30 1173.12,-36 1167.12,-36"/>
<text xml:space="preserve" text-anchor="middle" x="1139.25" y="-13.55" font-family="Helvetica,sans-Serif" font-size="11.00">gar&#45;trajectory</text>
</g>
<!-- gptel&#45;agent&#45;runtime&#45;&gt;gar&#45;trajectory -->
<g id="edge12" class="edge">
<title>gptel&#45;agent&#45;runtime&#45;&gt;gar&#45;trajectory</title>
<path fill="none" stroke="#666666" d="M989.2,-75.65C1018.96,-64.42 1057.74,-49.78 1088.41,-38.19"/>
<polygon fill="#666666" stroke="#666666" points="1089.37,-41.58 1097.48,-34.77 1086.89,-35.03 1089.37,-41.58"/>
</g>
<!-- gar&#45;tools -->
<g id="node14" class="node">
<title>gar&#45;tools</title>
<path fill="#f5f5f5" stroke="black" d="M1247.25,-36C1247.25,-36 1213.25,-36 1213.25,-36 1207.25,-36 1201.25,-30 1201.25,-24 1201.25,-24 1201.25,-12 1201.25,-12 1201.25,-6 1207.25,0 1213.25,0 1213.25,0 1247.25,0 1247.25,0 1253.25,0 1259.25,-6 1259.25,-12 1259.25,-12 1259.25,-24 1259.25,-24 1259.25,-30 1253.25,-36 1247.25,-36"/>
<text xml:space="preserve" text-anchor="middle" x="1230.25" y="-13.55" font-family="Helvetica,sans-Serif" font-size="11.00">gar&#45;tools</text>
</g>
<!-- gptel&#45;agent&#45;runtime&#45;&gt;gar&#45;tools -->
<g id="edge13" class="edge">
<title>gptel&#45;agent&#45;runtime&#45;&gt;gar&#45;tools</title>
<path fill="none" stroke="#666666" d="M998.45,-83.14C1046.64,-73.89 1118.47,-58.55 1190.19,-35.65"/>
<polygon fill="#666666" stroke="#666666" points="1190.89,-39.1 1199.32,-32.68 1188.73,-32.44 1190.89,-39.1"/>
</g>
<!-- gar&#45;backend -->
<g id="node15" class="node">
<title>gar&#45;backend</title>
<path fill="#f5f5f5" stroke="black" d="M1345.25,-36C1345.25,-36 1293.25,-36 1293.25,-36 1287.25,-36 1281.25,-30 1281.25,-24 1281.25,-24 1281.25,-12 1281.25,-12 1281.25,-6 1287.25,0 1293.25,0 1293.25,0 1345.25,0 1345.25,0 1351.25,0 1357.25,-6 1357.25,-12 1357.25,-12 1357.25,-24 1357.25,-24 1357.25,-30 1351.25,-36 1345.25,-36"/>
<text xml:space="preserve" text-anchor="middle" x="1319.25" y="-13.55" font-family="Helvetica,sans-Serif" font-size="11.00">gar&#45;backend</text>
</g>
<!-- gptel&#45;agent&#45;runtime&#45;&gt;gar&#45;backend -->
<g id="edge14" class="edge">
<title>gptel&#45;agent&#45;runtime&#45;&gt;gar&#45;backend</title>
<path fill="none" stroke="#666666" d="M998.5,-86.14C1061.69,-77.68 1168.28,-61.55 1269.83,-35.81"/>
<polygon fill="#666666" stroke="#666666" points="1270.63,-39.22 1279.45,-33.33 1268.89,-32.44 1270.63,-39.22"/>
</g>
<!-- gar&#45;directives -->
<g id="node16" class="node">
<title>gar&#45;directives</title>
<path fill="#f5f5f5" stroke="black" d="M1447.5,-36C1447.5,-36 1391,-36 1391,-36 1385,-36 1379,-30 1379,-24 1379,-24 1379,-12 1379,-12 1379,-6 1385,0 1391,0 1391,0 1447.5,0 1447.5,0 1453.5,0 1459.5,-6 1459.5,-12 1459.5,-12 1459.5,-24 1459.5,-24 1459.5,-30 1453.5,-36 1447.5,-36"/>
<text xml:space="preserve" text-anchor="middle" x="1419.25" y="-13.55" font-family="Helvetica,sans-Serif" font-size="11.00">gar&#45;directives</text>
</g>
<!-- gptel&#45;agent&#45;runtime&#45;&gt;gar&#45;directives -->
<g id="edge15" class="edge">
<title>gptel&#45;agent&#45;runtime&#45;&gt;gar&#45;directives</title>
<path fill="none" stroke="#666666" d="M998.52,-88.93C1078.03,-82.35 1229.28,-67.1 1367.34,-35.9"/>
<polygon fill="#666666" stroke="#666666" points="1368.09,-39.32 1377.05,-33.67 1366.52,-32.49 1368.09,-39.32"/>
</g>
<!-- gar&#45;context -->
<g id="node17" class="node">
<title>gar&#45;context</title>
<path fill="#f5f5f5" stroke="black" d="M1539.25,-36C1539.25,-36 1493.25,-36 1493.25,-36 1487.25,-36 1481.25,-30 1481.25,-24 1481.25,-24 1481.25,-12 1481.25,-12 1481.25,-6 1487.25,0 1493.25,0 1493.25,0 1539.25,0 1539.25,0 1545.25,0 1551.25,-6 1551.25,-12 1551.25,-12 1551.25,-24 1551.25,-24 1551.25,-30 1545.25,-36 1539.25,-36"/>
<text xml:space="preserve" text-anchor="middle" x="1516.25" y="-13.55" font-family="Helvetica,sans-Serif" font-size="11.00">gar&#45;context</text>
</g>
<!-- gptel&#45;agent&#45;runtime&#45;&gt;gar&#45;context -->
<g id="edge16" class="edge">
<title>gptel&#45;agent&#45;runtime&#45;&gt;gar&#45;context</title>
<path fill="none" stroke="#666666" d="M998.62,-91.48C1093.48,-87.91 1292.98,-76.19 1469.78,-35.65"/>
<polygon fill="#666666" stroke="#666666" points="1470.44,-39.09 1479.38,-33.41 1468.85,-32.27 1470.44,-39.09"/>
</g>
<!-- gar&#45;executor -->
<g id="node18" class="node">
<title>gar&#45;executor</title>
<path fill="#f5f5f5" stroke="black" d="M1637.62,-36C1637.62,-36 1584.88,-36 1584.88,-36 1578.88,-36 1572.88,-30 1572.88,-24 1572.88,-24 1572.88,-12 1572.88,-12 1572.88,-6 1578.88,0 1584.88,0 1584.88,0 1637.62,0 1637.62,0 1643.62,0 1649.62,-6 1649.62,-12 1649.62,-12 1649.62,-24 1649.62,-24 1649.62,-30 1643.62,-36 1637.62,-36"/>
<text xml:space="preserve" text-anchor="middle" x="1611.25" y="-13.55" font-family="Helvetica,sans-Serif" font-size="11.00">gar&#45;executor</text>
</g>
<!-- gptel&#45;agent&#45;runtime&#45;&gt;gar&#45;executor -->
<g id="edge17" class="edge">
<title>gptel&#45;agent&#45;runtime&#45;&gt;gar&#45;executor</title>
<path fill="none" stroke="#666666" d="M998.58,-92.37C1105.79,-90.2 1349.11,-80.57 1561.4,-35.78"/>
<polygon fill="#666666" stroke="#666666" points="1561.92,-39.25 1570.96,-33.73 1560.45,-32.41 1561.92,-39.25"/>
</g>
<!-- gar&#45;agents -->
<g id="node19" class="node">
<title>gar&#45;agents</title>
<path fill="#f5f5f5" stroke="black" d="M1727.12,-36C1727.12,-36 1683.38,-36 1683.38,-36 1677.38,-36 1671.38,-30 1671.38,-24 1671.38,-24 1671.38,-12 1671.38,-12 1671.38,-6 1677.38,0 1683.38,0 1683.38,0 1727.12,0 1727.12,0 1733.12,0 1739.12,-6 1739.12,-12 1739.12,-12 1739.12,-24 1739.12,-24 1739.12,-30 1733.12,-36 1727.12,-36"/>
<text xml:space="preserve" text-anchor="middle" x="1705.25" y="-13.55" font-family="Helvetica,sans-Serif" font-size="11.00">gar&#45;agents</text>
</g>
<!-- gptel&#45;agent&#45;runtime&#45;&gt;gar&#45;agents -->
<g id="edge18" class="edge">
<title>gptel&#45;agent&#45;runtime&#45;&gt;gar&#45;agents</title>
<path fill="none" stroke="#666666" d="M998.45,-93.86C1117.98,-94.6 1409.36,-90.35 1660.01,-35.49"/>
<polygon fill="#666666" stroke="#666666" points="1660.68,-38.93 1669.68,-33.34 1659.16,-32.1 1660.68,-38.93"/>
</g>
<!-- gar&#45;loop -->
<g id="node20" class="node">
<title>gar&#45;loop</title>
<path fill="#f9d6d6" stroke="black" d="M1805.12,-36C1805.12,-36 1773.38,-36 1773.38,-36 1767.38,-36 1761.38,-30 1761.38,-24 1761.38,-24 1761.38,-12 1761.38,-12 1761.38,-6 1767.38,0 1773.38,0 1773.38,0 1805.12,0 1805.12,0 1811.12,0 1817.12,-6 1817.12,-12 1817.12,-12 1817.12,-24 1817.12,-24 1817.12,-30 1811.12,-36 1805.12,-36"/>
<text xml:space="preserve" text-anchor="middle" x="1789.25" y="-13.55" font-family="Helvetica,sans-Serif" font-size="11.00">gar&#45;loop</text>
</g>
<!-- gptel&#45;agent&#45;runtime&#45;&gt;gar&#45;loop -->
<g id="edge19" class="edge">
<title>gptel&#45;agent&#45;runtime&#45;&gt;gar&#45;loop</title>
<path fill="none" stroke="#666666" d="M998.46,-91.54C1152.73,-87.08 1587.01,-71.85 1750.28,-35.16"/>
<polygon fill="#666666" stroke="#666666" points="1750.7,-38.66 1759.63,-32.95 1749.09,-31.85 1750.7,-38.66"/>
</g>
</g>
</svg>
